<svg xmlns="http://www.w3.org/2000/svg" width="90" height="115" viewBox="0 0 90 115"><path fill="#FFF" d="M90 66.7V2.86c-51.29-4.95-90 0-90 0v63.85c4.09 43.28 44.62 48.36 45 48.29 7.25-1.31 41.23-8.14 45-48.3zm-2.24-.36c-3.59 38.55-35.86 45.11-42.73 46.37-.36.06-38.86-4.82-42.74-46.36V5.05s36.76-4.75 85.47 0v61.29zm-13.07 22.7c1.44-2.06 2.26-4.28 2.75-6.66-.84 1.09-2.07 2.05-3.3 2.53-.87 2.75-.46 5.59.55 4.13zm1.38-6.18c1.03-.87 1.62-2.34 2.94-2.78-1-.92-1.98.91-2.49.28.92-1.45 1.5-2.56 1.6-4.37.05-.98 1.19-1.89 1.45-2.43-1.09.16-4.01 1.88-4.6 2.87-1.96 2.59-1.86 5.02-10.06 8.65-.41 0 1.52-1.4 2.07-3.02.26-.76 1.33-4.27.59-5.97-1.7 1.72-1.35 2.28-1.83 3.55-1.22 3.36-1.89 3.68-4.95 5.74-.41.28-2.75 3.9-5.8 4.07.31-.08.13-.84 1.16-1.51 3.41-2.23 2.11-7.05 6.56-7.86-2.22-.79-3.74 1.37-4.14 1.15 1.79-2.49.22-4.59.48-6.62-.6.32-1.2 1.05-1.25 1.65-.33 3.61-2.02 4.24-2.19 5.8.36 2.58-1.71 4.58-3.23 6.39-.29-1.5.1-2.84 1.99-4.08 1.04-.68-.1-2.74-.1-2.74-.42 2.25-1.69 2.94-2.48 3.05-.69.1 2.41-3.15 2.05-6.11-.16-1.32-.54-.73-.75-2.22-2.67 2.97-.72 4.82-3.46 8.24-1.3 1.62-1.79 4.48-1.96 4.55.03-4.25.17-3.01 2.05-6.46 1.55-2.84-.08-5.49-.3-7.2-3.4 2.34-3.12 6.86-3.21 5.88-.09-.96-.51-2.66-.05-4.19.76-2.55-.85-6.43-.85-6.43-4.76 7.47-.77 16.2-1.07 16.09-2.07-3.24-3.57-3.37-4.02-5.85-.24-1.35-2.7-8.74-7.2-8.87 2.27 1.96 1.72 2.23 1.87 5.43-1.45 8.02 9.78 8.86 9.03 13.02-1.54-2.46-3.89-3.51-7.42-5.43-1.57-1.24-3.33-1.79-3.43-3.74.19-1.41.27-1.12.02-2.95-.17-1.31-1.46-.52-2.41-3.25-2.03 1.83-1.28 3.91-1.12 5.09.05.34.28 1.58-.03 2.31-.72-.5-1.22-1.52-2.02-2.55-1.46-1.86-1.44-4.12-2.17-5.69-.34-.73-.82-1.72-1.1-1.73l-.05.03c-.35 2.92-.18 5.46 1.14 7.65 0 0-.36.62-.66.79-1.26-.33-3.04-1.39-3.77-3.44-1.56 1.31-.45 3.01-.53 2.98-3.51-1.79.04-8.78-4.96-8.57 1.23 1.34.45 3.07.35 4.68-.03 2.62 3.3 4.65 3.3 4.65-3.7-1.25-4.47.49-4.42.49 0 0 5.46 2.37 14.08 3.27 1.11.12 2.69 1.42 2.43 1.42-1.1-.08-3.3-1.51-6.46 1.3 1.86.05 3.14 3.08 6.16 1.34 7.8-2.21 10.69 1.66 11.96 2.66-.27.49-5.99-3.6-10.54-.89-2.42 1.44-6.29.13-9.33-2.14 1.23 3.14 6.45 6.66 8.18 6.67 2.12 0 4.83-2.76 7.9-2.61 4.92.24 5.61 4.64 5.06 4.3 0 0-3.87-6.41-8.85.44 2.32-1.07 5.44-.8 8.16.5.37.17-.67 1.32-1.4 2.16-.48.54-2.55 3.61-4.8.59-.34-.45-1.4-3.26-8.43-2.66 2.65 1.19 5.58 4.33 7.02 5.76 3.68 3.64 9.24-4.42 9.45-3.52 0 1.81.93 2.69 1.42 3.67 1.23 2.47-1.56 2.05-3.08 1.42 0 0 2.9 4.52 5.33 2 2.69-2.79-3.52-4.89-1.55-7.11 1.11-1.25 5.02 2.79 6.78 2.8 4.77.53 4.52-4 7.04-3.87-2.37-2.4-4.89-1.1-5.42-.48-1.59 1.85-3.43.61-4.71-.39-.7-.92-1.87-1.06-2.91-.78-.5.04 1-1.75 2.95-1.37 4.39.85 8.79-.73 9.87-1.33 1.77-.99 2.76-2.67 4.73-4.55-.62.12-4.27 2.15-5.44 2.74-3.52 1.77-5.72-.53-6.11-.52-.68.02-.5-.51.56-.85 3.61-.8 6.1-3.99 9.54-5.24 3.81-1.73 8.62-.58 11.84-3.75zm-7.17-4.77c-.11.75-.11 1.34-.35 2.19-.02.08.84.43 1.24.77.55-.52 1.05-.78 1.63-1.51-.13-.08-2.44-2.1-2.45-2.01-.01.28-.02.24-.07.56zm.36 3.45s-.89-.67-.94-.54c-.15.39-.34.83-.6 1.35-.23.46.47.12 1.54-.81zm10.48-9.1c-.22-8.28-5.3-17.46-3.91-15.75 3.46 4.27 4.57 13.53 6.94 21.51 0 0 1.52.78 1.2-9.34-.07-2.05-.9-4.78-1.92-6.68-2.01-3.75-6.08-10.09-5.96-10.14.98-.8 3.37 4.67 5.45 6.81 1.35 1.39 5.09 2.75 5.35 2.58-3-5.82-10.27-11.29-9.51-11.97 5.35 5.01 7.04 5.25 7.26 4.99l-4.82-4.68c-1.36-1.83-3.16-3.23-2.91-3.17 2.15.48-1.12-1.79-3.65-2.48-.46-.12-1.18-.16-1.21-.39-.04-.39.59-.22 1.12-.39.35-.1.7-.37.71-.87-.97.21-1.95-.01-2.78-.39-1.71-.79-4.76-1.71-6.16-1.16-.82.32-.98.28-1.86.96-.39-.16-1.46-.85-2.99.98-.47.56-1.04 1.23-1.06 1.71-.07 1.23.03.06.33 1.23.12.49-.43 1.39-2.67 2.14-.87.29-.65 1.15-.65 1.15.43-.21 1.11-.69 2.16-.2 2.05.96 2.45-.56 3.72-1.64 0 0-.35 1.36-.01 1.43 1.59.33 1.06 1.52.86 1.7-2.01 1.79-1.17 2.47-1.88 3.57-.67 1.04-1.72 1.44-3.27 1.39-2.14-.07 2.8-3.31-1.93-4.65.74 1.24 1.04 2.24-.61 3.19-1.04.61-.51 3.68-3.19 2.26 0 0-.22 2.28-.53 2.38 3.63 3.18 1.6 4.92 1.79 9.46 1.13 2.89-.11 4.27-.4 4.43.18 1.96.37 3.04 1.59 4.63.89 1.16-.08 2.93.83 4.17.83-2.95 1.73-1.72 1.97-5.82.33-.69 1.71-1.91 2.5-1.98-.01 2.47.9 4.72.71 5.77 0 0 2.09-.38 2.73-.15.51.17.91.85.92 1.26-.71.44-.71.27-1.78 1.06-1.88 1.37-2.74 4.15-2.74 4.15s4.41-3.51 4.72-4.15c.25-.5.49-1.28.72-2.07.03-.09-2.27-1.43-2.9-2.65-1.97-3.83 3.05 2.27 3.17 1.74.3-1.32 1.21-2.57 1.21-2.57-.32-.38-1.11-.61-2.31-2.73-2.75-4.84 3.18 2.07 3.18 2.07 1.57-.9 1.58.3 1.78 1.58.02.12 2.67 2.07 2.8 2.2.75-.69 1.29-1.64 1.6-2.29.04-.09-4.79-4.36-5.61-5.78-6.65-11.41 5.38 5.06 5.95 4.61.32-.89.43-2.12.39-3.78 0-.04-2.26-1.6-3.71-3.99-5.59-9.23 3.67 2.75 3.67 2.67-.11-1.97-1.73-10.55-.61-7.97.57 1.32 2.37 6.8 2.04 12.37.61-1.04 3.19-2.07 4.17-2.32zm3.64-54.95c.05.33.08.57.1.73-.02-.16-.05-.4-.1-.73.01 0-.16-3.08-3.46-3.08-1.08 0-2.38 1.31-5.73-.14v5.23c1.35.4 5.07-1.72 6.56-2.37 1.05-.47 2.55-.16 2.63.36zm-9.29 7.57v5.23s2.92-.02 6.17-2.11c.97-.63 2.41-.37 3.12.2h.01s-.44-3.43-3.34-3c-5.34.78-5.96-.32-5.96-.32zm-19.95 8.31c2.78 0 13.7 3 18.97 2.64V8.52s-7.75 1.1-14.46-1.38c-5.48-2.02-13.01 1.51-13.01 1.51.01.94 0 26.95 0 26.95s2.77-2.23 8.5-2.23zm-5.92-9.05c.26.03 1.05.04 1.33.04-.04.59-.04 4.66 0 5.08s.4.55.76.38c.18-.07.35.06.11.25-.4.3-.89 1-1.11 1.27-.46-.31-.96-.71-.92-1.09.05-.64-.15-5.38-.17-5.93zm1.44-5.95c.8-.44 2.59-.71 3.21-.52.31.09.63 0 .63-.14 0-.21.29-.15.29 0 0 .16-.01 2.12-.02 2.3 0 .19-.28.17-.28 0 0-.28 0-.37-.25-.75-.72-1.08-2.7-1.17-3.68.13-.34.43-.46 1.2-.08 1.32.37.12 1.78.01 2.23-.07.46-.08 1.59-.27 1.72-.36.13-.08.3-.18.3.04 0 .23 0 .98-.01 1.2 0 .23-.18.12-.3.03-.13-.08-1.2-.18-1.66-.21-.77-.07-1.93-.31-2.31-.19-.38.11-.08.71.25 1.15.97 1.31 2.77 1.35 3.5.28.26-.39.26-.47.26-.74 0-.17.3-.2.3 0 0 .18-.02 1.81-.02 1.96 0 .16-.3.21-.3-.01.01-.34-.2-.32-.6-.21-1.05.28-2.45.38-3.29-.1-.88-.5-1.65-.67-1.67-2.61-.02-1.16 1.07-2.09 1.78-2.5zM55.41 10c-.47.14-.81.61-.92 1.09-.09.49-1.7 5.15-1.89 5.45-.38-1.45-1.99-4.91-2.51-5.65-.44-.65-.87-.53-1.27-.54-.39 0-.24-.38.08-.35.45.05 2.99.28 3.71.38.26.05.26.29-.08.39-.18.05-.58.24-.58.44 0 .28.92 2.3 1.18 2.68.22-.52 1.09-2.74.91-3.23-.19-.48-.26-.56-.62-.6s-.36-.26.07-.32c.44-.07 1.64-.17 2-.13.36.05.41.26-.08.39zm2.73.06l-.48.42h-.39l-.4-.39-.02-.77.64-.54.64.63v.65h.01zm1.11 5.38l-.85 1.1h-.79c-.39-.39-.65-.7-.73-1.02l-.04-2.65-.99-.56c-.18.25-.55.25-.4.04l1.36-1.19.3-.03.86.87-.02 2.73c.43.49.69.61 1.3.71zm4.79-3.14c-.2 0-2.26.25-2.26.25-.11.05.11 2.59.18 2.8.06.21.26.53.49.32.21-.21.45.14.2.34-.14.11-.6 1.01-.81 1.15-.32.2-.79-.47-.95-.88-.25-.69-.41-2.43-.41-3.58.07.02-.96-.41-.49-.59.9-.39 1.77-1.59 1.88-1.9s.4-.18.25.13c-.3.63-.27 1.08-.14 1.45.04.1 1.78.06 2.04.06.17.01.16.45.02.45zm-2.36 8.77c-.18.89.59 1.62 1.18 1.92.47.24 1.28.11 1.48.08.2-.03.14-.09.29-.22.15-.14.32-.01.2.12-.13.14-1.32 1.27-1.65 1.5-.3.08-.97.06-1.37-.45-.71-.88-1.22-1.2-1-2.81.15-1.09 1.97-2.04 2.39-2.27.17.16.99 1.03 1.36 1.33-.14.18-.6.39-1.04.38-.45 0-.75-.38-1.05-.71-.2.2-.66.47-.79 1.13zm7.27-4.34l-1.1 1.2c-.32-.23-.51-.48-.61-.88-.84.17-1.41.67-1.8.96-.35-.31-.87-1.15-.88-1.73-.01-.58.44-1.42.75-1.72.03.01.06.03.09.05-.18-.11-.35-.22-.49-.33-.12-.11-.16-.39 0-.62.22-.29.9-1.15 1.57-1.25.35-.05.96.05 1.78.78-.11.13-.11 2.53-.11 2.78.31.38.8.76.8.76zm2.25 5.45c-.36-.02-.73-.08-.93-.14-.31-.08-.18-.44.07-.44s.65.07.84.15c.19.07.27.45.02.43zm-.02.85a4.37 4.37 0 0 1-.92-.14c-.31-.1-.19-.44.08-.44.25 0 .64.08.82.15s.25.46.02.43zm-5.73 5.07c.37-.21 1.23-.99 1.53-1.2.5.38.82.77 1.07 1.04.33-.17.85-.55 1.1-.75.44.31.93.71 1.11.93.23-.21.52-.04.25.22-.25.24-.82.74-1.04.9-.32-.17-.87-.8-1.05-.94-.09.08-.28.17-.44.26-.01.35 0 3.2-.02 3.55-.47.02-.85.06-1.17-.01-.03-.45.02-2.92 0-3.32-.03-.5-.81-.67-1.34-.68zm-.18-5.49c.04-1.42.99-2.63 2.51-3.17 1.2.4 1.71 1.62 1.75 2.44.03.67-.41 1.55-.71 2.09-.47.31-.95.77-1.4 1.21-1.47-.02-2.18-1.74-2.15-2.57zm-5.66 4.67c.44-.49.91-.8 1.18-1.07.46.35.61.56.87.94-.01.62-.14 1.94-.1 2.4.02.45 1.8.75 1.88.09.08-.66.02-1.5 0-1.89-.03-.3-.74-.44-1.09-.4.48-.5.89-.87 1.19-1.15.43.32.85.78 1.1 1.17-.01.67-.13 2.23-.04 2.64.12.43.08.46.4.67-.33.31-.58.44-.8.68-.33-.1-.9-.6-.86-1.05-.41.28-1.61.78-2.04.89-.43-.45-.77-.57-.79-1.12-.03-.56.13-2.02-.05-2.37-.19-.32-.49-.4-.85-.43zm-1.02-4.01c-.43-.25-1.03-.82-1.35-1.29-.58.74-.72 1.38-1.78 1.65.61-.52 1.18-1.65 1.13-2.74-.05-.98-.58-1.46-1.05-1.64-.41.19-.76.46-.97.55-.22.09-.28-.26-.12-.33.52-.25 1.65-1.12 1.81-1.29.48.09 1.08.5 1.16.89.36-.22 1.01-.93 1.2-1.09.22.38.87.86 1.59 1.12-.66 1.13-2.13.45-2.34.18-.24.39-.29.63-.06 1.13.3.67 1.51 1.31 2.13 1.48-.17.2-1.04 1.18-1.35 1.38zM56.9 26.7c.07.02-.94-.38-.51-.6.76-.38 1.51-1.17 1.63-1.49.12-.3.41-.17.25.14-.15.31-.25 1.07-.17 1.31.03.1.61.16.87.16.15 0 .14.46-.01.46-.19-.01-.91.01-.91.01-.1.05-.03 2.55.03 2.77.08.21.67.35.89.15.22-.2.45.01.18.2-.13.12-.59.83-.95.97-.37.14-.93-.09-1.17-.46-.38-.6-.15-2.47-.13-3.62zm-2.32 4.05c-.37-.28-.69-.35-.8-.79-.96.37-1.31.92-1.89 1.32-.34-.31-.62-.87-.63-1.45-.01-.57.55-1.34.87-1.63-.04-.04-.06-.04-.11-.08-.12-.11-.3-.94-.13-1.16.21-.3 1.06-1.47 1.73-1.53.46-.04.82.53 1.21.95-.1.11-.05 2.15-.07 2.4.43.46.6.56.86.39.25-.18.36 0 .18.17s-1 1.17-1.22 1.41zm-.84-2.49c0-.43 0-.86-.04-1.06.04-.32-.64-.78-.82-.79-.19 0-.35.07-.59.44-.12.19-.09.97.01 1.05.57.49.93.43 1.44.36zm-1.15.27c-.51.97-.09 1.17.2 1.41.36-.18.67-.34.93-.52 0-.18.01-.51.01-.87-.58.06-.76.19-1.14-.02zm13.75-5.79c.24.61 1.27 1.41 1.55 1.54.43-.52.66-1.47.56-2.27-.07-.62-.87-1.29-1.55-1.54-.87.54-.87 1.45-.56 2.27zm-.03-5.69c.36-.17.61-.25.89-.26-.01-.14-.03-.28-.03-.46 0-.14.01-.51.02-.92-.48-.15-1.09-.41-1.61-.7.08.05.16.09.24.13-.57 1.05.19 1.97.49 2.21zm-1.12-2.9c.39.32 1.46.82 1.99 1.01 0-.46 0-.91-.04-1.13.04-.31-1.05-.89-1.21-.89-.2-.01-.48.31-.73.67-.12.21-.11.26-.01.34zM44.65 39.06c-.86.1-1.92.61-2.18 1.52-.53.52-.5-.87-1.57-.26-.46.62.73 1.98.45 2.07-1.17.35-1.02-1.75-1.69-1.81-.96.34-3.37 2.55-1 4.29-.07-1.18 2.16-2.46 2.9.14 2.24-.17 2.99 1.19 3.27 1.95 3.3.59 2.35 2.78 2.26 2.78-.31-.47-1.73-2.66-4.06-1.15-.54.35-1.47.69-1.93.23.05.73.97 1.39 1.6 1.22 2.07-.56 2.59 1.36 1.01 1.88.34.53.99.5 1.59.13.89-.54.99-1.02 1.32-1.35.56 2.69-2.85 2.95-3.93 3.11.17.57.53.7 1.22.9-3.6.12-4.3 3.5-4.09 5.44.81.06 2.06-1.7 1.95-.69-2.55 2.7-3.41 6.32-2.07 8.62.64-.26.84-.96 1.06-1.54.1-.07 1.4.52-.69 3.02-.15.65-.88 2.62.73 3.09.62-.72.53-1.36.66-2.1.47-.19.78 1.33.6 1.79-2.1.87-1.84 7.31.59 10.77-1.13-2.52-.98-5.75 0-8.32.75-1.99 2.4-6.48 2.45-6.42.94 1.15 2.12 6.09 2.12 8.13 1.31-1.14 1.57-2.4 2.64-3.24.51 1.8.72 2.98 1.12 4.56.52-1.55 1.9-3.29-.07-8.3.41-.37 1.15 1.74 1.39 1.64.18-.07.45-1.12-.22-3.08-1.38-1.29-1.7-3.19-1.48-3.33.18-.11.8 1.97 1.54 2.07.15-1.62.54-3.27.42-4.53-.03-.33-.57-2-2.1-3.38-.89-.8-1.23-2.47-1.15-2.81.86.79.67 1.37 1.4 1.69.3-.68.1-3.2-.79-4.3-.5-.83-.27-.72.34-.22.79.94.41.87 1.09 1.26 1.49-3.52.14-4.21.24-4.46.09-.22 1.15 1.64 2.06.93-1.47-.78-1.43-1.96-1.6-3.23-.13-1.01-.78-1.39-.53-1.63 1.47 1.11 1.87-.12 1.92-.36-.28.16-1.59.33-1.75-1.7-.06-.8-1.29-1.15-1.29-1.15.75-.14 3.17-.28 2.6-2.68-.29.56-1.01 1.46-2.52 1.11 0 0 .96-.26.79-1.3-2.31 1.31-4.19-1.35-6.62-1zm4.31 3.17c-1.54.3-2.69 1.98-4.43 1.26-.23-.15-.7-.28-.64-.62.31.18.8.29 1.15.35 0 0-.94-.78-.11-1.74-1.06.66-1.42.48-1.42.13 0-.16 1.38-1.17 2.68-.67.94.36 1.75 1.07 2.78 1.22v.07h-.01zm-2.48.03c0 .36-.46.86-.46.86l1.67-.84c-.33-.22-1.27-.75-1.67-.86 0-.01.46.35.46.84zm-9.87-8.89c4.19.28 7.76 2.22 7.76 2.22V8.56s-6.16-4.31-16.17-.45c-2.94 1.13-10.11.18-10.11.18v27.62c6.29.43 14.47-2.81 18.52-2.54zm-2.98-14.54c.81.25 2 .07 2.38 1.14.4 1.13-.33 2.58-1.27 2.65-.79.06-1.5-.2-1.94-.16-.2.02-.35.08-.39.3-.03.24-.34.34-.4.03-.07-.3-.16-1.59-.16-1.96 0-.38.35-.41.41 0 .07.4.19.69.5 1.03.24.27 1.78.65 2.35.2.46-.37.35-1.17-.13-1.48-.47-.32-2.38-.76-2.71-1.3-.56-.93.44-1.71.87-1.96.68-.38 1.47-.26 1.75-.25.27 0 .62.09.64-.2s.24-.26.27.04c.09.83.17.33.14 1.22 0 .41-.14.41-.32.1-.11-.21-1.29-1.19-2.24-.58-.8.51-.49.98.25 1.18zm2.3 5.54c-.35.33-.63.64-.93.98-.26-.17-.66-.52-.97-.79.5-.23.78-.54.95-.88.21.44.61.62.95.69zm-5.13 2.08c.43-.31 1.15-1.65 1.25-1.96.09-.31.27-.21.24.13-.04.48-.25 1.53-.17 1.75.04.11.72.1.94.1.15 0 .16.44.02.44-.18 0-.94.11-.94.11-.1.04-.05 1.61.1 1.78.3.29.53.49.95.06.2-.21.41-.02.17.19-.13.12-.7.81-.82 1.16-.13.34-.88.08-1.12-.28-.38-.57-.22-1.72-.25-2.84.06.01-.73-.37-.37-.64zm-.58-3.26c-.27.24-.88-.14-1.1-.51-.35-.59-.24-1.96-.19-3.08.04 0-.2-.28-.43-.32-.29-.07-.35-.18.11-.37.56-.22 1.43-1.57 1.55-1.87.11-.3.28-.02.11.27-.35.67-.21 1.44-.15 1.67.04.1 1.09-.04 1.32-.04.15.01.13.45-.01.44-.18 0-1.57.17-1.57.17-.1.05.11 2.23.25 2.39.02.03.46.41.62.24.21-.2.41.01.16.21-.11.11-.35.54-.67.8zm-4.96 3.33c.51-.4.79-.71 1.14-1.03.31.48.44.94.71 1.14.36-.31.97-.69 1.25-1 .27.13.73.41.77 1.36.02.95.15 2.44.15 2.77 0 .18.05.12.32.06.26-.07.36.06.17.23-.2.16-1.14.81-1.39 1.1-.33-.62-.39-1.06-.26-1.67.11-.5.02-1.86.02-2.16 0-.3-.46-.41-.66-.58-.28.21-.31.24-.55.47 0 .41-.05 3.26.01 3.64-.64.03-.58-.01-.95-.01-.03-.55-.01-2.75-.04-3.22-.05-.48-.46-.82-.69-1.1zm-4.29 1.56c.27-1.86 2.07-2.61 2.62-2.98.1.54.72 1.48 1.12 1.85-.61.5-2.01 1.67-2.55 2.08.3.54 1.41.93 1.78.52.28-.28.62-.18.31.18-.4.47-.82 1.13-1.02 1.55-.82-.35-2.5-1.42-2.26-3.2zm-.47-8.6c.45-.67 1.5-1.31 2.22-1.57.23.26.5.67.83 1.12-.34.26-.68.6-.88.84-.15-.17-1.01-1.46-1.62-.56-.33.48-.68 1.88.44 2.75.54.41 1.12.55 1.86.43-.38.5-.48.64-.69 1.07-1.08.19-1.52-.15-2.05-.6-1.11-.91-.76-2.48-.11-3.48zm4.86-2.46c-.19-.28-.23-.52-.62-.41-.97.28-2.04.57-2.81.12-.82-.5-1.53-.67-1.55-2.54-.02-1.14.99-2.05 1.65-2.44.75-.43 2.03-.15 2.61.02.28.09.5.06.51-.31 0-.2.32-.15.31 0l-.01 2.66c-.01.18-.38.2-.37.03 0-.26-.09-.76-.18-1.17-.13-.61-1.72-1.73-2.87-.23-.03.07-.49.86-.43 1.48.04.46.11 1.1.42 1.52.9 1.28 2.18.85 2.86-.19.24-.38.2-.84.22-1.11 0-.16.36-.18.36 0 0 .19-.02 1.73-.02 1.87.01.23.17.4.26.51.23.34-.02.61-.34.19zm.84 1.34c.42-.05.78.81 1.16 1.22-.11.12-.11 2.66-.11 2.9.09.15.39.32.51.2.21-.2.34 0 .16.17-.16.16-.99.88-1.2 1.11-.29-.22-.39-.54-.43-.99-.51.12-.98.4-1.29.87-.57-.26-1.01-.75-1.03-1.31-.01-.57.38-.9.79-1.29-.07-.06-.14-.1-.22-.18-.12-.1-.27-1.02-.16-1.28.27-.62 1.19-1.36 1.82-1.42zm4.61-6.21c-.24.24-.79.59-1.01.75-.28-.17-.63-.67-.81-.81-.08.08-.24.17-.4.25 0 .34.02 3.35-.02 3.69-.43.02-.79.05-1.09-.01-.03-.44.03-2.84.01-3.23-.04-.48-.46-.51-1.02-.67.32-.38.91-.81 1.17-1.02.48.38.77.38 1.01.65.31-.17.86-.5 1.1-.7.22.26.65.7.81.9.23-.23.5-.05.25.2zm4.38 2.93c-.27.14-.82.71-1.26.71-1.32-.06-2.99-1.02-2.75-2.79.25-1.85 1.72-2.56 2.34-2.58.72.05.88.67 1.29 1.04-.61.5-1.61 1.49-2.2 2.09.15.31.83 1.48 2.29 1.12.65-.16.87.12.29.41zm5.25-3.23c-.14.17-.69.62-1.31 1.11.1.02.19.04.29.09 1.01.59 1.35 1.42.36 2.21-.54.43-1.42.93-2.38.95-.63.02-1.76-.51-1.96-.74.51-.48 1.07-1.01 1.46-1.35-.62-.48-1.21-1.12-.73-1.86.36-.56 1.46-1.45 2.45-1.41.98.05 1.42.73 1.82 1zm.62 5.08l.59.62v.64l-.45.4h-.37l-.37-.38-.01-.74.61-.54zm1.12-3c-1.39.05-1.03-.58-.8-.57 1.18.07 1.02.56.8.57zm-.02.83c-1.39-.14-1.03-.58-.79-.56 1.3.07 1.01.59.79.56zm.63 8.19l-.51.55-.65.56c-.37-.38-.63-.48-.69-.78l-.02-2.51-.6-.36c-.35.31-.62.18-.31-.1l1.16-1.07.27-.04.5.74-.02 2.66c.29.28.29.24.87.35zm-5.17 6.48c-.01-.6.3-1.07.72-1.5-.03-.03-.05-.04-.08-.06-.12-.1-.31-1.15-.16-1.37.2-.29 1.13-1.18 1.75-1.24.43-.04 1.06.88 1.43 1.29-.1.12.13 2.67.13 2.91.13.21.57.36.71.15.17-.22.34.02.17.19-.17.16-.81.67-1.01.91-.29-.23-.76-.47-1.07-.85-.64.12-1.29.58-1.81.95-.57-.25-.76-.81-.78-1.38zm-.94-7.57c-.39-1.07.31-2.08.66-2.37.27-.23.91-.77 1.32-1.03.4.24.71.42.91.51-.07.2-.16.59-.59.61-.64.02-1.14-.15-1.49.22-.34.37-.08 1.42.36 1.82.32.31 1.21.7 1.37.34.21-.47.53-.22.22.18-.21.27-.58.84-.79 1.22-.66-.05-1.58-.4-1.97-1.5zm.25 7.44l-.5.56-.48.49c-.37-.38-.64-.45-.7-.75l-.02-2.43-.76-.4c-.35.29-.62.17-.32-.1l1.15-1.07.28-.04.73 1.08.02 2.3c.3.26.04.26.6.36zm1.81-1.06c-.81.68.1 1.3.35 1.52.28-.14.63-.2.91-.3-.04-.11-.09-.21-.09-.34 0-.12.02-.39.04-.68-.54.05-.78.09-1.21-.2zm1.24-.09c.03-.4.04-.81.01-1.03.05-.3-.89-.88-1.05-.88-.2 0-.2.11-.42.47-.11.19-.02.77.08.86.5.45.91.59 1.38.58zm-1.6-15.16c.27-.22.52-.42.61-.49-.4-.38-1.08-.74-1.39-.78-.3-.03-.91.23-.68.55.23.3.47.68.97.75.17.02.33 0 .49-.03zm-.44.91c-.45.35-.85.67-1.07.86.16.31 1.21 1.06 1.79.79.57-.26.85-.84.32-1.14-.37-.21-.71-.36-1.04-.51zm-5.45-.7c.27-.2.91-.93 1.33-1.33-.24-.14-.66-.43-.82-.84-.74.58-.88.98-.51 2.17zm-6.23 9.4c0-.12-.01-.24 0-.38v-.96c-.48.29-.67.52-1.16.23-.8.65.42 1.05.68 1.27.19-.09.34-.12.48-.16zm-.01-1.65c-.01-.32-.02-.63-.05-.8.04-.3-.53-.99-.69-1-.18 0-.57.35-.79.69-.11.2-.13.73.11 1.01.49.54.71.56 1.42.1zm-3.54 5.19c-1.53.94-1.26 1.98-.76 2.61.28-.2 1.27-.87 1.67-1.27-.23-.14-.75-.93-.91-1.34zm-9.3 3.66h3.41v-3.36h-3.41v3.36zm0-11.69h3.41v-3.35h-3.41v3.35zm-4.02 6.8c-4 0-4 5.87 0 5.87 3.88-.01 3.85-5.87 0-5.87zm0-11.72c-3.83 0-3.91 5.87 0 5.87 3.85 0 3.85-5.87 0-5.87zm34.43 34.29c-.23-.51-.61-.99-1.16-1.25-2.29-1.09-6.67 1.27-6.62-2.16 0 0-1.57 1.16-.85 2.38 1.62 2.79 6.17-.67 8.63 1.03zM23.27 75.37c-1.28 1.27-1.72 1.31-1.65 1.86.29.78.85 1.33 1.45 1.99.75.62 1.03 1.17.48-.62-.34-1.2-.26-2.07-.28-3.23zm-8.84-24.18l.07.07c-.01 2.64-7.42 6.41-10.59 8.11 4.9 1.69 9.54-2.86 8.98-1.75-.66 1.29-6.65 6.46-9.26 9.22 2.03.56 3.9-1.08 5.37-2.33 1.61-1.37 4.3-4.81 3.89-3.1-4.35 5.37-7.77 16.52-5.67 17.23 1.21-2.52 6.21-15.41 6.53-15.36.33.07-.39 3.4-.5 5.61-.25 4.86-.28 7.16.77 11.94.54-.74 1.06-.72 1.92-.66.11-.47.08-.35-.46-1.06-1.39-1.84.21-4.35-.46-5.88-.56-1.28-.87-.26-1.13-1.59.39-.35 1.43-.47 1.85-.53.45-4.99 2.12-7.53 1.5-4.38-.32 1.59-.8 4.24-.57 4.31.23.08.25.08.45.18.09.05 8.38-13.58 3.79-4.14-.6 1.24-3.05 4.58-3.05 4.58.65.66 1.25 1.44 1.33 1.9.02.13 11.11-14.59 3.56-2.73-.46.72-2.73 3.16-3.31 3.86-.08.09.21 2.76.21 2.76 1.15-.8 2.8-2.41 3.57-3.43-.1-1.5.25-1.31.33-2.78.35-.23.81.4 1.37.9.26.23 7.61-12.56 3-2.96-.74 1.54-2.38 3.37-2.45 3.51.31.33.77 1.38 1.3 2.61.02.05 9.83-14.15 3.87-3.42-.47.85-3.42 4.4-3.38 4.49.73 1.77 1.36 3.5 1.36 3.5-.18-1.39-.46-4.11 2.41-6.36.37 2.46 1.03 2.56 1.89 3.32.38.33 1.08 1.74 1.16.54.24-3.5-.89-3.41-1.74-4.9-.2-.35-.16-1.16-.01-1.11 7.06.21 6.83 6.83 8 6.83-.54-1.69-.68-3.34-.04-4.7-1.89-1.34-1.42-3.64-1.06-4.63-2.13-2.2-.91-6.88.11-7.86-1.37-1.99.32-3.35-.04-4.57-.58-4.32-4.43-3.03-5.29-7.14-.6.73-1.71 3.22-1.19 4.05.6.95 1.88 1.03 1.96 1.73.03.3.13 1.12-.08 1.3-.73.13-1.23-.54-1.97-.83-1.5-.59-5.12 1.89-5.33-.3-.14-1.38.47-.39.4-1.66-.06-1.32-.72-.39-.73-2.09-.01-1.24 1.49-1.63 1.6-2.13.27-1.23 2.5 1.81 3.82-1.42-.76.11-2.31-.43-2.17-1.18.39-2.02.42-6.92-4.15-5.86-1.64.38-6.22 2.79-6.85.17-1.65 2.92 1.61 2.41 2.6 2.35-.39.27-.88.71-2.1.45-2.58 1.7-11.99 7.68-14.71 9.18 3.63 1.68 9.24-1.86 9.32-1.86zm2.69 32.62c-.88-.37-1.85-.62-2.67-1.18.58 1.95 1 3.64 2.08 5.69.62 1.17 1.69-1.64.59-4.51z"/></svg>